<?xml version="1.0" encoding="utf-8"?>
<!-- Generator: Adobe Illustrator 26.0.1, SVG Export Plug-In . SVG Version: 6.00 Build 0)  -->
<svg version="1.1" id="Layer_1" xmlns="http://www.w3.org/2000/svg" xmlns:xlink="http://www.w3.org/1999/xlink" x="0px" y="0px"
	 viewBox="0 0 1080 1080" style="enable-background:new 0 0 1080 1080;" xml:space="preserve">
<style type="text/css">
	.st0{fill:#FFF9ED;}
	.st1{fill:#03B4D8;}
	.st2{fill:#223A57;}
	.st3{opacity:0.42;fill:#8E3089;}
	.st4{fill:#FFD206;}
	.st5{fill:#EB6116;}
</style>
<g>
	<path class="st0" d="M729.67,344.65c-0.02-0.05-0.02-0.12-0.02-0.17c-37.72-3.5-71.59-6.67-105.45-9.65
		c-2.79-0.24-5.84,0.6-8.51,1.62c-13.77,5.46-21.32,15.11-21.73,26.23c-0.19,3.72,0.48,7.6,1.98,11.58c1.14,3.1,2.81,6.24,5,9.39
		c0,0,0,0,0.02,0.02c1.6,2.31,3.48,4.62,5.69,6.89c7.46,7.77,12.06,16.18,14.34,24.71c6.1,22.51-4.22,45.86-22.3,60.21
		c-28.97,22.9-72.9,22.4-104.19,3.24c-2.19-1.33-4.34-2.79-6.41-4.31c-1.1-0.81-2.19-1.64-3.24-2.53c-0.62-0.5-1.24-1-1.86-1.55
		c-5.98-5.17-11.17-11.2-15.37-18.01c-5.62-9.22-8.91-18.56-9.96-27.57c0-0.02,0-0.02,0-0.05c-2.48-21.59,7.98-41.41,30.07-54.18
		c3.31-1.91,6.74-3.65,9.79-5.88c10.1-7.39,14.53-17.32,13.25-27.47l-1.22-0.38l-2.43-0.76c-0.02-0.02-0.05-0.02-0.05-0.02
		l-138.85-43.65c-1.22,7.24-2,11.72-2.67,16.2c-1.19,7.98-2.36,15.99-3.53,23.97c-0.52,3.6-1.05,7.2-1.57,10.79
		c-3.98,27.26-7.98,54.49-12.25,81.65c-2.05,12.96-10.01,21.51-20.66,26.66c-0.48,0.26-0.98,0.5-1.48,0.71
		c-1.6,0.71-3.26,1.38-4.96,1.95c-6.91,2.36-13.53,2.24-19.61,0.14c-1.6-0.57-3.17-1.26-4.69-2.1c0,0-0.02,0-0.02-0.02
		c-1.93-1.02-3.76-2.29-5.58-3.74c0-0.02-0.02-0.02-0.07-0.05c-1.22-0.98-2.41-2.05-3.57-3.22c-0.02-0.05-0.05-0.07-0.07-0.07
		l-6.46-6.12l-0.02-0.02l-31.21-29.59c-0.02-0.02-0.07-0.05-0.12-0.05c-10.65-3.31-22.51-2.07-34.88,4.05
		c-22.16,10.96-34.64,28.85-39.81,51.1c-0.67,2.79-1.19,5.62-1.62,8.53c-0.29,1.93-0.52,3.91-0.71,5.88
		c-1.14,11.94-0.55,23.28,2.17,33.74c0.02,0.02,0.02,0.05,0.02,0.07l24.66,33.64l2.71,6.36l3.62,2.29l0.29,0.38
		c20.11,12.77,42.1,9.32,59.68-8.6c4.12-4.22,8.41-8.48,13.25-11.86c12.34-8.7,27.4-9.05,38.57-1.17c0.02,0,0.05,0.02,0.07,0.05
		c3.17,2.26,3.05,7.79,5.43,11.37c1.95,2.88-1.55,4.33,0,7.55h3.26c1.26,2.53,3.66,7.27,4.66,9.93c0,0.02-2.13,5.56,1.34,1.86
		c1.76,4.69,2.62,6.17,3.55,10.95c3.43,17.94,2.45,33.52,4.43,51.74c2.69,24.44,7.26,50.37,10.02,74.91c0,0.02,2.85-0.02,2.85,0.01
		c0.07,0.79,0.17,1.55,0.26,2.33c6.62,0,13.25,0,19.89,0c0.1,0,0.21,0,0.31,0c111.14,0,221.74,0,332.72,0c0.29,0,0.57,0,0.86,0
		c6.62,0,13.25,0,19.87,0c0.33-3.29,0.69-5.74,0.83-8.22c1.52-27.16,2.93-54.34,4.67-81.48c0.07-1.1,0.14-2.22,0.21-3.31
		c0.26-4.53,0.57-9.05,0.88-13.6c0.36-5.19,2.07-11.01,5.03-15.25c18.3-26.3,44.98-24.75,65.09,3.41c1.38,1.91,2.79,3.72,4.22,5.38
		c4.53,5.27,9.41,9.41,14.56,12.39c16.18,9.36,35,7.5,53.63-6.1c2.1-1.52,4.1-3.19,6-4.98c0.69-0.64,1.36-1.31,2-1.98l0.02-0.02
		c15.15-15.37,23.47-38.31,23.3-61.64c0-0.57,0-1.14-0.02-1.69c-0.14-5.6-0.79-11.2-1.93-16.73c-0.95-4.67-2.29-9.27-4-13.72
		c-0.91-2.38-1.95-4.72-3.12-6.98c-1.62-3.19-3.5-6.24-5.58-9.12c-20.44-28.54-60.25-39.93-85.91-4.41
		c-9.22,12.72-22.75,17.42-37.83,13.25c-0.6-0.17-1.22-0.33-1.83-0.55c-0.38-0.1-0.76-0.24-1.14-0.36
		c-9.05-3.17-16.32-11.2-20.85-20.99c-0.02-0.02-0.02-0.05-0.02-0.07c-2.62-5.69-4.29-11.98-4.84-18.25c0-0.02,0-0.02,0-0.05
		c-2.26-26.59-5.07-53.15-7.74-79L729.67,344.65z"/>
	<path class="st1" d="M284.82,443.13c-13.33-8.99-29.41-9.83-46.43-1.48c-8.38,4.11-15.38,9.18-21.13,15.12
		c-12.65,13.04-19.23,30.22-21.16,50.03c-1.64,17.02,0.29,32.79,7,46.59c-0.45-0.29-0.9-0.61-1.35-0.93
		c-25.24-18.21-33.3-44.19-30.41-73.92c0.06-0.8,0.16-1.61,0.26-2.41c3.28-27.68,22.42-51.67,42.03-62.75
		c23.2-13.1,45.98-5.36,61.2,16.47C277.98,434.4,281.09,439.05,284.82,443.13z"/>
	<path class="st1" d="M900.22,491.13c-21-13.49-48.14-13.36-67.47,12.72c-13.74-2.44-28.13,1.06-40.36,13.04
		c-0.32-0.1-0.61-0.22-0.93-0.32c-11.17-3.85-19.68-15.06-23.57-27.87c15.83,5.04,30.12,0.51,39.72-12.62
		C836.38,436.57,882.91,455.39,900.22,491.13z"/>
	<path class="st2" d="M203.1,553.4c-0.45-0.29-0.9-0.61-1.35-0.93c-25.24-18.21-33.3-44.19-30.41-73.92
		c0.06-0.8,0.16-1.61,0.26-2.41c5.46-5.33,12.01-9.92,19.68-13.68c9.02-4.4,17.76-6.26,25.98-5.68
		c-12.65,13.04-19.23,30.22-21.16,50.03C194.46,523.83,196.38,539.59,203.1,553.4z"/>
	<path class="st1" d="M388.07,347.39c-5.23,35.23-10.31,70.48-15.9,105.65c-2.44,15.38-13.33,24.5-27.17,29.16
		c-7.87,2.63-15.29,2.18-22-0.77c0.93-2.31,1.64-4.85,2.06-7.55c1.25-7.87,2.47-15.77,3.66-23.63c9.67-5.17,16.76-13.39,18.69-25.46
		c4.27-27.01,8.28-54.04,12.27-81.11C369.22,344.92,378.66,346.14,388.07,347.39z"/>
	<path class="st2" d="M359.69,343.67c-3.98,27.07-8,54.11-12.27,81.11c-1.93,12.07-9.02,20.29-18.69,25.46
		c4.72-30.7,9.15-61.43,13.74-92.13c0.67-4.5,1.48-8.99,2.7-16.34C350.02,342.42,354.87,343.03,359.69,343.67z"/>
	<path class="st1" d="M623.37,503.28c-12.17,9.54-26.97,15-42.39,16.73h-0.03c-34.1,3.79-71.09-10.73-89.01-39.75
		c-1.12-1.8-2.15-3.63-3.05-5.43c31.57,22.35,79.06,24.28,109.72,0.19c0.55-0.45,1.09-0.87,1.64-1.38
		c23.79-19.88,32.91-55.55,6.33-83.04c-2.06-2.12-3.85-4.24-5.39-6.39c0.22,0,0.45,0,0.67,0.03c5.84,0.51,11.69,1.03,17.53,1.54
		c-2.67,10.02,1.09,21.8,11.98,33.07C658.53,446.95,648.39,483.62,623.37,503.28z"/>
	<path class="st2" d="M600.25,473.64c-0.83-11.66-5.78-23.41-15.99-33.97c-20.39-21.07-15.7-44.09,9.09-53.79
		c2.41-0.93,5.23-1.73,7.84-1.67c1.54,2.15,3.34,4.27,5.39,6.39C633.16,418.08,624.04,453.76,600.25,473.64z"/>
	<path class="st3" d="M293.55,450.64c-2.83-1.77-5.46-4.01-7.96-6.65c-0.26-0.29-0.55-0.58-0.77-0.87
		C287.87,445.22,290.79,447.72,293.55,450.64z"/>
	<path class="st2" d="M497.19,364.8c-3.08,2.25-6.52,3.98-9.83,5.88c-1.51,0.87-2.95,1.73-4.33,2.67c-1-1.57-2.15-3.11-3.47-4.66
		c-7.9-9.18-18.05-11.82-29.19-13.23c-20.71-2.67-41.39-5.36-62.3-8.06c0.51-3.37,1-6.71,1.51-10.08c0.67-4.53,1.48-9.02,2.7-16.34
		c35.68,4.62,70.42,9.22,105.2,13.65c4.5,0.61,8.83,1.35,12.94,2.7C511.8,347.46,507.4,357.41,497.19,364.8z"/>
	<path class="st2" d="M767.89,488.68c-0.39-0.13-0.8-0.26-1.19-0.39c-14.35-4.95-24.31-22.06-25.79-39.05
		c-2.28-26.33-5.04-52.63-7.74-78.22c7.23,0.67,14.58,1.35,22.06,2.06c3.44,33.68,7.39,69.01,10.44,104.39
		C765.99,481.27,766.73,485.06,767.89,488.68z"/>
	<path class="st1" d="M761.05,615.33c-1.22,3.15-1.96,6.55-2.18,9.73c-2.22,32.59-3.89,65.22-5.78,97.81
		c-0.13,2.47-0.48,4.95-0.83,8.19h-45.57c0.55-9.41,1.09-18.85,1.61-28.26h19.2c0.35-3.24,0.71-5.72,0.83-8.19
		c1.54-26.27,2.92-52.57,4.56-78.83C741.84,610.93,751.61,610.84,761.05,615.33z"/>
	<path class="st2" d="M901.82,624.9c-12.46,9.02-25.05,12.88-36.86,11.59c11.3-12.46,18.4-29.29,20.49-47.11
		c22.03-22.45,29.41-60.92,17.08-92.93c-0.71-1.83-1.48-3.6-2.31-5.33c11.82,7.61,21.67,19.52,27.07,33.56
		C941.06,560.52,930.21,604.35,901.82,624.9z"/>
	<g>
		<path class="st4" d="M510.42,337.31c-4.11-1.35-8.45-2.09-12.94-2.7c-34.78-4.43-69.52-9.02-105.2-13.65
			c-1.22,7.32-2.02,11.82-2.7,16.34c-0.51,3.37-1,6.71-1.51,10.08c-9.41-1.25-18.85-2.47-28.39-3.72c1.7-11.53,3.4-23.09,5.14-34.62
			c0.67-4.53,1.48-9.02,2.67-16.34c35.71,4.66,70.45,9.22,105.23,13.68c11.11,1.41,21.29,4.05,29.19,13.23
			C506.76,325.27,509.61,331.31,510.42,337.31z"/>
		<path class="st4" d="M706.68,731.06c-0.22,4.21-0.45,8.45-0.71,12.65c-0.13,2.47-0.48,4.91-0.83,8.19H330.4
			c-2.83-25.21-5.68-50.32-8.48-75.46c-1.99-18.11-2.83-36.45-6.26-54.3c-2.12-10.89-6.58-22.03-12.75-31.24
			c-4.43-6.61-10.5-10.95-17.24-12.97c1.32-1.16,2.6-2.34,3.85-3.63c4.17-4.21,8.48-8.45,13.29-11.82
			c9.54-6.65,20.71-8.38,30.47-5.23c2.09,5.17,3.69,10.53,4.72,15.83c3.44,17.85,4.27,36.19,6.26,54.3
			c2.79,25.14,5.65,50.25,8.48,75.43h21.58c1.06,9.41,2.12,18.82,3.18,28.26H706.68z"/>
		<path class="st4" d="M792.39,516.88c-2.47,2.38-4.85,5.14-7.13,8.25c-9.83,13.45-24.57,17.92-40.91,12.27
			c-14.35-4.98-24.31-22.09-25.79-39.08c-3.02-35.42-7-70.74-10.44-104.43c-31.5-2.89-60.34-5.59-88.72-8.12
			c2.28-8.77,9.47-16.18,21.03-20.71c2.67-1.06,5.75-1.89,8.51-1.64c27.39,2.38,54.78,4.91,84.23,7.61
			c2.7,25.59,5.46,51.89,7.74,78.22c1.48,16.99,11.43,34.1,25.79,39.05c0.39,0.13,0.8,0.26,1.19,0.39
			c3.89,12.81,12.4,24.02,23.57,27.87C791.78,516.65,792.07,516.78,792.39,516.88z"/>
		<path class="st4" d="M885.45,589.39c1.73-14.58,0.13-29.83-5.27-43.86c-8.28-21.55-27.13-38.12-47.43-41.68
			c19.33-26.07,46.47-26.2,67.47-12.72c0.83,1.73,1.61,3.5,2.31,5.33C914.86,528.47,907.47,566.94,885.45,589.39z"/>
	</g>
	<g>
		<path class="st5" d="M320.25,453.94c2.99-1,5.84-2.22,8.48-3.69c-1.19,7.87-2.41,15.77-3.66,23.63c-0.42,2.7-1.12,5.23-2.06,7.55
			c-4.56-1.99-8.8-5.14-12.65-9.22c-4.05-4.27-7.39-9.25-10.76-14.13c-1.89-2.73-3.92-5.2-6-7.42
			C301.47,455.71,310.52,457.22,320.25,453.94z"/>
		<path class="st5" d="M730.48,344.83c0.87,8.64,1.77,17.37,2.7,26.2c-29.45-2.7-56.84-5.23-84.23-7.61
			c-2.76-0.26-5.84,0.58-8.51,1.64c-11.56,4.53-18.75,11.95-21.03,20.71c-5.84-0.51-11.69-1.03-17.53-1.54
			c-0.22-0.03-0.45-0.03-0.67-0.03c-13.84-19.17-7.77-38.66,14.48-47.4c2.67-1.06,5.75-1.89,8.51-1.64
			C658.32,338.15,692.42,341.33,730.48,344.83z"/>
		<path class="st5" d="M333.28,557.25c-9.76-3.15-20.94-1.41-30.47,5.23c-4.82,3.37-9.12,7.61-13.29,11.82
			c-1.25,1.28-2.54,2.47-3.85,3.63c-11.56,9.99-24.76,14.13-37.89,11.95c-7.19-1.16-14.35-4.17-21.26-9.15
			c-10.79-7.8-18.43-16.99-23.41-27.33c20.65,14.1,43.51,11.01,61.65-7.35c4.17-4.21,8.48-8.45,13.29-11.82
			c15.93-11.11,36.38-8.51,47.2,7.61C328.39,546.56,331.12,551.8,333.28,557.25z"/>
		<path class="st5" d="M521.94,393.06c-3.08,2.25-6.52,3.98-9.83,5.88c-29.57,16.95-38.41,46.43-23.22,75.88
			c-8.67-6.13-16.12-13.78-21.71-22.83c-5.59-9.09-8.89-18.24-9.99-27.1c-2.44-20.13,6.55-38.76,25.82-51.54
			c1.38-0.93,2.83-1.8,4.33-2.67c3.31-1.89,6.74-3.63,9.83-5.88c10.21-7.39,14.61-17.34,13.23-27.49
			c6.04,1.96,11.56,5.11,16.25,10.56C539.73,363.07,538.19,381.3,521.94,393.06z"/>
		<path class="st5" d="M885.45,589.39c-2.09,17.82-9.18,34.65-20.49,47.11c-13.33-1.35-25.66-9.15-35.77-23.22
			c-20.13-28-46.91-29.54-65.25-3.37c-1.12,1.61-2.09,3.47-2.89,5.43c-9.44-4.5-19.2-4.4-28.16,0.45c0.39-6.33,0.8-12.65,1.22-18.98
			c0.35-5.17,2.12-10.95,5.07-15.16c18.34-26.17,45.12-24.63,65.25,3.37c19.11,26.52,46.11,30.83,72.64,11.62
			C880.05,594.46,882.88,592.05,885.45,589.39z"/>
		<path class="st5" d="M728.47,702.8c-0.51,9.41-1.06,18.85-1.61,28.26h-370.2c-1.06-9.44-2.12-18.85-3.18-28.26H728.47z"/>
	</g>
</g>
</svg>
